<?xml version="1.0" encoding="utf-8"?>
<?xml-stylesheet type="text/xsl" href="rss1.xsl"?>
<rss version="2.0" xmlns:atom="http://www.w3.org/2005/Atom" xmlns:content="http://purl.org/rss/1.0/modules/content/" xmlns:dc="http://purl.org/dc/elements/1.1/" xmlns:media="http://search.yahoo.com/mrss/">
<channel>
 <title>sharemania</title>
 <link>http://www.sharemania.us/</link>
 <atom:link href="http://www.gettyimg.com/" rel="self" type="application/rss+xml" />

 
                <item>
                <title><![CDATA[【Albums (lossless)】FLAC - SEPULTURA - 2003 - Revolusongs [EP] (2022 Vinyl Limited Edition) [24bit-192kHz]]]></title>
                <link><![CDATA[https://sharemania.us/threads/sepultura-2003-revolusongs-ep-2022-vinyl-limited-edition-24bit-192khz.283202/]]></link>
                <description><![CDATA[<article>
				<blockquote class="messageText SelectQuoteContainer ugc baseHtml">
					
					<div style="text-align: center"><img src="https://i.imgur.com/NQJLd1b.jpeg" class="bbCodeImage LbImage" alt="[​IMG]" data-url="https://i.imgur.com/NQJLd1b.jpeg" style=""> <br>
<br>
<b>Band</b>: Sepultura<br>
<b>EP</b>: Revolusongs (2022 Vinyl Limited Edition)<br>
<b>Date</b>: 04 March 2003<br>
<b>Genre</b>: Thrash Metal / Groove Metal<br>
<b>Quality</b>: 24bit-192kHz<br>
<b>Country</b>: Brazil<br>
<b>Size</b>: 1,1GB<br>
<br>
<b>Tracklist</b>:<br>
<br>
1-Messiah 03:26<br>
2-Angel 05:13<br>
3-Black Steel in the Hour of Chaos 04:02<br>
4-Mongoloid 02:35<br>
5-Mountain Song 03:28<br>
6-Bullet the Blue Sky 04:34<br>
7-Piranha 03:39<br>
<br>
<b><span style="font-size: 22px"><span style="color: #660000">userdrive</span></span></b>:<br>
<br>




<div class="bbCodeBlock bbCodeVfcHH HiddenContent">
	<div class="attribution type">Hidden Content:</div>
	<blockquote>You must either reply or click 'Like' to see the hidden information contained here.</blockquote>
</div><b><span style="font-size: 22px"><span style="color: #006600">Filedot</span></span></b>:<br>
<br>




<div class="bbCodeBlock bbCodeVfcHH HiddenContent">
	<div class="attribution type">Hidden Content:</div>
	<blockquote>You must either reply or click 'Like' to see the hidden information contained here.</blockquote>
</div></div>
					<div class="messageTextEndMarker">&nbsp;</div>
				</blockquote>
			</article>]]></description>
                <author><![CDATA[XRB80]]></author>
                </item>

                
                <item>
                <title><![CDATA[【Singles (lossless)】FLAC - Lady Gaga - Can't Stop The High (Official) [FLAC 24bit - 44.1kHz]]]></title>
                <link><![CDATA[https://sharemania.us/threads/lady-gaga-cant-stop-the-high-official-flac-24bit-44-1khz.283203/]]></link>
                <description><![CDATA[<article>
				<blockquote class="messageText SelectQuoteContainer ugc baseHtml">
					
					<img src="https://a1.mzstatic.com/r40/Music211/v4/be/11/d1/be11d187-1aeb-99f3-01c5-597ed65cdb6a/25UMGIM07433.rgb.jpg" class="bbCodeImage LbImage" alt="[​IMG]" data-url="https://a1.mzstatic.com/r40/Music211/v4/be/11/d1/be11d187-1aeb-99f3-01c5-597ed65cdb6a/25UMGIM07433.rgb.jpg" style=""><br>
<br>
<b>Format:</b> FLAC<br>
<b>Audio quality:</b> 24bits 44.1kHz<br>
<b>Bitrate:</b> 1793 kb/s<br>
<b>Artist:</b> Lady Gaga<br>
<b>Album:</b> MAYHEM<br>
<b>Song name:</b> Can't Stop The High<br>
<b>Genre:</b> Pop<br>
<b>Duration:</b> 03 min 31 sec<br>
<b>Release date:</b> 09/03/2025<br>
<b>Label:</b> Interscope Records<br>
<br>



<div class="ToggleTriggerAnchor bbCodeSpoilerContainer">
	<button type="button" class="button bbCodeSpoilerButton ToggleTrigger Tooltip JsOnly" data-target="&gt; .SpoilerTarget"><span>Spoiler: <span class="SpoilerTitle">MediaInfo</span></span></button>
	<div class="SpoilerTarget bbCodeSpoilerText">

<div class="bbCodeBlock bbCodeCode">
	<div class="type">Code:</div>
	<pre>General
Complete name               : 7 - MAYHEM (2025) [24bits - 44.1kHz]\Can't Stop The High\05. Can’t Stop the High.flac
Format                      : FLAC
Format/Info                 : Free Lossless Audio Codec
File size                   : 46.4 MiB
Duration                    : 3 min 31 s
Overall bit rate mode       : Variable
Overall bit rate            : 1 846 kb/s
Title                       : Can’t Stop the High
Album                       : MAYHEM
Album/Performer             : Lady Gaga
Part                        : 1
Part/Total                  : 1
Track name/Position         : 5
Track name/Total            : 17
Performer                   : Lady Gaga
Composer                    : Andrew Watt / Henry Walter / Lady Gaga
Lyricist                    : Henry Walter / Lady GaGa / Andrew Watt
Producer                    : Cirkut / Andrew Watt / Lady GaGa
Genre                       : Pop
Recorded date               : 2025-03-07
ISRC                        : USUM72407019
Copyright                   : ℗ 2025 Interscope Records
Cover                       : Yes
Cover type                  : Cover
Cover MIME                  : image/jpeg
Rating                      : Clean
UPC                         : 00602478995781
Additional Engineer         : Tyler Harris / Marco Sonzini
Additional Mixing Engineer  : Bryce Bordone
Bass                        : Andrew Watt
BassProgrammer              : Cirkut
Drum                        : Chad Smith / Andrew Watt
DrumProgrammer              : Cirkut / Chad Smith
Electric Guitar             : Andrew Watt
Engineer                    : Paul Lamalfa
Keyboard                    : Chad Smith / Cirkut / Lady GaGa / Andrew Watt
Mastering Engineer          : Randy Merrill
Mixing Engineer             : Serban Ghenea
Synthesizer                 : Chad Smith / Cirkut

Audio
Format                      : FLAC
Format/Info                 : Free Lossless Audio Codec
Duration                    : 3 min 31 s
Bit rate mode               : Variable
Bit rate                    : 1 793 kb/s
Channel(s)                  : 2 channels
Channel layout              : L R
Sampling rate               : 44.1 kHz
Bit depth                   : 24 bits
Compression mode            : Lossless
Replay gain                 : -12.03 dB
Replay gain peak            : 1.000000
Stream size                 : 45.1 MiB (97%)
Writing library             : Lavf58.76.100
MD5 of the unencoded conten : 5BA9B49841BAC428B2FF29F37ABB7B44

Image
Type                        : Cover
Format                      : JPEG
Muxing mode                 : FLAC Picture
Width                       : 3 000 pixels
Height                      : 3 000 pixels
Color space                 : YUV
Chroma subsampling          : 4:4:4
Bit depth                   : 8 bits
Compression mode            : Lossy
Stream size                 : 1.27 MiB (3%)

</pre>
</div></div>
</div><br>
<b><span style="font-size: 18px">Servers</span></b><br>
<ul>
<li><b><span style="color: rgb(255, 0, 0)">MEGA</span></b></li>
<li><b><span style="color: rgb(0, 128, 255)">Mediafire</span></b></li>
<li><b><span style="color: rgb(0, 89, 179)">Gofile</span></b></li>
<li><b><span style="color: rgb(0, 179, 0)">Swisstransfer</span></b></li>
</ul><br>




<div class="bbCodeBlock bbCodeVfcHH HiddenContent">
	<div class="attribution type">Hidden Content:</div>
	<blockquote>You must either reply or click 'Like' to see the hidden information contained here.</blockquote>
</div>
					<div class="messageTextEndMarker">&nbsp;</div>
				</blockquote>
			</article>]]></description>
                <author><![CDATA[xNando]]></author>
                </item>

                
                <item>
                <title><![CDATA[【Singles (lossless)】FLAC - Lady Gaga - Kill For Love (Official) [FLAC 24bit - 44.1kHz]]]></title>
                <link><![CDATA[https://sharemania.us/threads/lady-gaga-kill-for-love-official-flac-24bit-44-1khz.283201/]]></link>
                <description><![CDATA[<article>
				<blockquote class="messageText SelectQuoteContainer ugc baseHtml">
					
					<img src="https://a1.mzstatic.com/r40/Music211/v4/be/11/d1/be11d187-1aeb-99f3-01c5-597ed65cdb6a/25UMGIM07433.rgb.jpg" class="bbCodeImage LbImage" alt="[​IMG]" data-url="https://a1.mzstatic.com/r40/Music211/v4/be/11/d1/be11d187-1aeb-99f3-01c5-597ed65cdb6a/25UMGIM07433.rgb.jpg" style=""><br>
<br>
<b>Format:</b> FLAC<br>
<b>Audio quality:</b> 24bits 44.1kHz<br>
<b>Bitrate:</b> 1739 kb/s<br>
<b>Artist:</b> Lady Gaga<br>
<b>Album:</b> MAYHEM<br>
<b>Song name:</b> Kill For Love<br>
<b>Genre:</b> Pop<br>
<b>Duration:</b> 04 min 07 sec<br>
<b>Release date:</b> 09/03/2025<br>
<b>Label:</b> Interscope Records<br>
<br>



<div class="ToggleTriggerAnchor bbCodeSpoilerContainer">
	<button type="button" class="button bbCodeSpoilerButton ToggleTrigger Tooltip JsOnly" data-target="&gt; .SpoilerTarget"><span>Spoiler: <span class="SpoilerTitle">MediaInfo</span></span></button>
	<div class="SpoilerTarget bbCodeSpoilerText">

<div class="bbCodeBlock bbCodeCode">
	<div class="type">Code:</div>
	<pre>General
Complete name               : 7 - MAYHEM (2025) [24bits - 44.1kHz]\13. Kill For Love.flac
Format                      : FLAC
Format/Info                 : Free Lossless Audio Codec
File size                   : 52.5 MiB
Duration                    : 4 min 6 s
Overall bit rate mode       : Variable
Overall bit rate            : 1 784 kb/s
Title                       : Kill For Love
Album                       : MAYHEM
Album/Performer             : Lady Gaga
Part                        : 1
Part/Total                  : 1
Track name/Position         : 13
Track name/Total            : 17
Performer                   : Lady Gaga
Composer                    : Andrew Watt / Henry Walter / Lady Gaga
Lyricist                    : Lady GaGa / Andrew Watt / Henry Walter
Producer                    : Cirkut / Andrew Watt / Lady GaGa
Genre                       : Pop
Recorded date               : 2025-03-07
ISRC                        : USUM72407022
Copyright                   : ℗ 2025 Interscope Records
Cover                       : Yes
Cover type                  : Cover
Cover MIME                  : image/jpeg
Rating                      : Clean
UPC                         : 00602478995781
Additional Engineer         : Tyler Harris / Marco Sonzini
Additional Mixing Engineer  : Bryce Bordone
Bass                        : Andrew Watt
BassProgrammer              : Cirkut
Drum                        : Chad Smith
DrumProgrammer              : Cirkut
Electric Guitar             : Andrew Watt
Engineer                    : Paul Lamalfa
Keyboard                    : Lady GaGa / Cirkut / Andrew Watt
Mastering Engineer          : Randy Merrill
Mixing Engineer             : Serban Ghenea
Rhodes                      : Lady GaGa
Saxophone                   : James King
Synthesizer                 : Cirkut
Trombone                    : Shaunte Palmer
Trumpet                     : Ron Blake

Audio
Format                      : FLAC
Format/Info                 : Free Lossless Audio Codec
Duration                    : 4 min 6 s
Bit rate mode               : Variable
Bit rate                    : 1 739 kb/s
Channel(s)                  : 2 channels
Channel layout              : L R
Sampling rate               : 44.1 kHz
Bit depth                   : 24 bits
Compression mode            : Lossless
Replay gain                 : -12.03 dB
Replay gain peak            : 1.000000
Stream size                 : 51.1 MiB (97%)
Writing library             : Lavf58.76.100
MD5 of the unencoded conten : 94E9BF12DF71D341CB9D7A196CEA90AE

Image
Type                        : Cover
Format                      : JPEG
Muxing mode                 : FLAC Picture
Width                       : 3 000 pixels
Height                      : 3 000 pixels
Color space                 : YUV
Chroma subsampling          : 4:4:4
Bit depth                   : 8 bits
Compression mode            : Lossy
Stream size                 : 1.27 MiB (2%)

</pre>
</div></div>
</div><br>
<b><span style="font-size: 18px">Servers</span></b><br>
<ul>
<li><b><span style="color: #ff0000">MEGA</span></b></li>
<li><b><span style="color: #0080ff">Mediafire</span></b></li>
<li><b><span style="color: #0059b3">Gofile</span></b></li>
<li><b><span style="color: #00b300">Swisstransfer</span></b></li>
</ul><br>




<div class="bbCodeBlock bbCodeVfcHH HiddenContent">
	<div class="attribution type">Hidden Content:</div>
	<blockquote>You must either reply or click 'Like' to see the hidden information contained here.</blockquote>
</div>
					<div class="messageTextEndMarker">&nbsp;</div>
				</blockquote>
			</article>]]></description>
                <author><![CDATA[xNando]]></author>
                </item>

                </channel></rss>